<svg viewBox="0 0 1000 125" xmlns="http://www.w3.org/2000/svg"><path d="m0 0h1000v125h-1000z"/><g fill="#fff"><path d="m628.99 83.9h-18.72v-44.72h17.96c8.73 0 13.82 4.9 13.82 12.56 0 4.96-3.27 8.16-5.52 9.23 2.7 1.26 6.16 4.09 6.16 10.05 0 8.35-5.71 12.87-13.7 12.87zm-1.45-36.93h-8.54v10.29h8.54c3.7 0 5.78-2.07 5.78-5.15s-2.07-5.15-5.78-5.15zm.56 18.15h-9.11v10.99h9.11c3.95 0 5.84-2.52 5.84-5.52s-1.88-5.46-5.84-5.46z"/><path d="m673.57 80.25c-2.01 2.13-5.33 4.02-10.17 4.02s-8.1-1.88-10.11-4.02c-2.95-3.08-3.7-6.78-3.7-12.75s.75-9.61 3.7-12.69c2.01-2.13 5.27-4.02 10.11-4.02s8.16 1.88 10.17 4.02c2.95 3.08 3.7 6.78 3.7 12.69s-.75 9.67-3.7 12.75zm-6.34-20.66c-.95-.95-2.19-1.45-3.83-1.45s-2.83.5-3.76 1.45c-1.7 1.69-1.88 4.52-1.88 7.91s.19 6.28 1.88 7.98c.95.95 2.13 1.45 3.76 1.45s2.89-.5 3.83-1.45c1.7-1.69 1.88-4.59 1.88-7.98s-.19-6.22-1.88-7.91z"/><path d="m704.09 83.9v-19.78c0-4.46-2.83-5.97-5.4-5.97s-5.47 1.51-5.47 5.97v19.78h-8.16v-32.72h7.98v3.02c2.13-2.26 5.15-3.39 8.16-3.39 3.27 0 5.91 1.07 7.73 2.89 2.64 2.64 3.33 5.72 3.33 9.3v20.91h-8.16z"/><path d="m739.89 83.9v-3.02c-2.13 2.26-5.15 3.39-8.16 3.39-3.27 0-5.91-1.07-7.73-2.89-2.64-2.64-3.33-5.72-3.33-9.3v-20.91h8.16v19.78c0 4.46 2.83 5.97 5.41 5.97s5.46-1.51 5.46-5.97v-19.78h8.16v32.71h-7.98z"/><path d="m767.76 84.27c-5.15 0-9.8-.56-13.94-4.71l5.33-5.33c2.7 2.7 6.22 3.08 8.72 3.08 2.83 0 5.78-.95 5.78-3.39 0-1.63-.88-2.77-3.45-3.02l-5.15-.5c-5.91-.56-9.55-3.14-9.55-9.17 0-6.78 5.97-10.43 12.62-10.43 5.09 0 9.36.88 12.5 3.83l-5.02 5.08c-1.88-1.69-4.77-2.19-7.6-2.19-3.27 0-4.65 1.51-4.65 3.14 0 1.2.5 2.58 3.39 2.83l5.15.5c6.47.62 9.73 4.08 9.73 9.61 0 7.23-6.16 10.68-13.88 10.68h.01z"/><path d="m818.64 84.27c-4.77 0-8.8-1.63-12.06-4.9-1.94-1.94-3.14-4.21-3.64-6.72-.5-2.52-.75-6.22-.75-11.12s.25-8.6.75-11.12c.5-2.58 1.7-4.77 3.64-6.72 3.27-3.27 7.29-4.9 12.06-4.9 8.6 0 14.95 5.02 16.45 14.13h-8.86c-.95-3.83-3.33-6.34-7.54-6.34-2.38 0-4.27.75-5.59 2.32-1.82 1.94-2.19 3.95-2.19 12.62s.37 10.68 2.19 12.62c1.32 1.57 3.2 2.32 5.59 2.32 4.21 0 6.59-2.52 7.54-6.34h8.86c-1.51 9.11-7.91 14.13-16.45 14.13z"/><path d="m864.6 80.25c-2.01 2.13-5.33 4.02-10.17 4.02s-8.1-1.88-10.11-4.02c-2.95-3.08-3.7-6.78-3.7-12.75s.75-9.61 3.7-12.69c2.01-2.13 5.27-4.02 10.11-4.02s8.16 1.88 10.17 4.02c2.95 3.08 3.7 6.78 3.7 12.69s-.75 9.67-3.7 12.75zm-6.34-20.66c-.95-.95-2.19-1.45-3.83-1.45s-2.83.5-3.76 1.45c-1.7 1.69-1.88 4.52-1.88 7.91s.19 6.28 1.88 7.98c.95.95 2.13 1.45 3.76 1.45s2.89-.5 3.83-1.45c1.7-1.69 1.88-4.59 1.88-7.98s-.19-6.22-1.88-7.91z"/><path d="m894.18 83.9v-3.08c-2.27 2.52-4.65 3.45-8.1 3.45-3.2 0-6.22-1.13-8.04-2.95-3.27-3.27-3.33-8.92-3.33-13.82s.06-10.49 3.33-13.76c1.82-1.82 4.77-2.95 7.98-2.95s5.84.88 7.98 3.27v-14.88h8.16v44.71h-7.98zm-5.78-25.74c-4.9 0-5.52 4.02-5.52 9.36s.62 9.42 5.52 9.42 5.59-4.08 5.59-9.42-.69-9.36-5.59-9.36z"/><path d="m917.73 70.08c0 4.21 2.57 7.29 7.15 7.29 3.58 0 5.33-1.01 7.4-3.08l4.96 4.84c-3.33 3.33-6.53 5.15-12.44 5.15-7.73 0-15.13-3.51-15.13-16.76 0-10.68 5.77-16.7 14.26-16.7 9.11 0 14.26 6.66 14.26 15.64v3.64h-20.46zm11.68-9.12c-.88-1.94-2.7-3.39-5.46-3.39s-4.59 1.45-5.46 3.39c-.5 1.2-.69 2.07-.75 3.51h12.44c-.06-1.45-.25-2.32-.75-3.51z"/><path d="m171.8 88.59c-8.53 0-15.46-6.94-15.46-15.46v-13.54c0-8.53 6.94-15.46 15.46-15.46h8.7c8.52 0 15.46 6.94 15.46 15.46v11.82h-27.62v1.72c0 1.9 1.55 3.45 3.46 3.45h24l-2.9 12.01h-21.09zm0-33.78c-1.91 0-3.46 1.55-3.46 3.45v3.22h15.61v-3.22c0-1.9-1.55-3.45-3.45-3.45z"/><path d="m79.54 60.93h43.8v11.51h-43.8z" transform="matrix(0 1 -1 0 168.13 -34.75)"/><path d="m126.7 88.59-15.12-43.8h12.28l9.59 27.8 9.59-27.8h12.28l-15.11 43.8z"/><path d="m293.47 88.59c-8.53 0-15.46-6.94-15.46-15.46v-13.54c0-8.53 6.94-15.46 15.46-15.46h8.7c8.53 0 15.46 6.94 15.46 15.46v13.54c0 8.52-6.94 15.46-15.46 15.46zm0-32.46c-1.91 0-3.46 1.55-3.46 3.45v13.54c0 1.9 1.55 3.45 3.46 3.45h8.7c1.9 0 3.45-1.55 3.45-3.45v-13.54c0-1.9-1.55-3.45-3.45-3.45z"/><path d="m256.95 88.59c-8.53 0-15.46-6.94-15.46-15.46v-13.54c0-8.53 6.94-15.46 15.46-15.46h17.55l-2.9 12.01h-14.65c-1.91 0-3.46 1.55-3.46 3.45v13.54c0 1.9 1.55 3.45 3.46 3.45h17.55l-2.9 12.01z"/><path d="m322.62 88.59v-29c0-8.53 6.94-15.46 15.46-15.46h12.13l-2.9 12.01h-9.22c-1.91 0-3.46 1.55-3.46 3.45v29z"/><path d="m367.1 88.59c-8.53 0-15.46-6.94-15.46-15.46v-13.54c0-8.53 6.94-15.46 15.46-15.46h8.7c8.52 0 15.46 6.94 15.46 15.46v11.82h-27.62v1.72c0 1.9 1.55 3.45 3.46 3.45h23.81l-2.9 12.01zm0-33.78c-1.91 0-3.46 1.55-3.46 3.45v3.22h15.61v-3.22c0-1.9-1.55-3.45-3.45-3.45z"/><path d="m101.44 39.76c-3.35 0-6.07-2.72-6.07-6.07s2.72-6.07 6.07-6.07 6.07 2.72 6.07 6.07-2.72 6.07-6.07 6.07z"/><path d="m199.1 88.59 2.9-12.01h19.99c1.9 0 3.45-1.55 3.45-3.45v-4.66c0-1.81-1.41-3.32-3.22-3.45-.05 0-8.59-.73-8.85-.75-7.99-.62-14.24-7.39-14.24-15.41v-2.86c0-8.53 6.94-15.46 15.46-15.46h20.04l-2.9 12.01h-17.14c-1.91 0-3.45 1.55-3.45 3.46v2.86c0 1.79 1.4 3.3 3.18 3.44l1.3.11c2.38.2 7.24.62 7.54.64 8.02.6 14.3 7.37 14.3 15.42v4.66c0 8.52-6.94 15.46-15.46 15.46h-22.89z"/></g><path d="m457.7 88.57c-8.53-.04-15.43-7.01-15.39-15.53l.06-13.54c.04-8.53 7.01-15.43 15.53-15.39l8.7.04c8.52.04 15.43 7.01 15.39 15.53l-.05 11.82-27.62-.13v1.72c-.02 1.9 1.53 3.46 3.43 3.47l23.81.11-2.96 11.99-20.91-.1zm.1-33.76c-1.91 0-3.46 1.55-3.46 3.45v3.22h15.61v-3.22c0-1.9-1.55-3.45-3.45-3.45z" fill="#f50"/><path d="m498.68 73.13v-18.34h11.53l2.58-10.68h-14.11v-13.45h-12.01v42.47c0 8.52 6.94 15.46 15.46 15.46h12.02v-12.01h-12.02c-1.91 0-3.45-1.55-3.45-3.45z" fill="#f50"/><path d="m434.76 57.49c1.54-2.4 2.44-5.24 2.44-8.3v-3.07c0-8.53-6.94-15.46-15.46-15.46h-22.35v57.93h15.46s0 0 0 0h8.7c8.53 0 15.46-6.94 15.46-15.46v-5.02c0-4.11-1.62-7.84-4.25-10.62zm-13.02-14.83c1.9 0 3.45 1.55 3.45 3.45v3.07c0 1.9-1.55 3.45-3.45 3.45h-6.89s0 0 0 0h-3.45v-9.98h10.35zm5.27 30.47c0 1.9-1.55 3.45-3.45 3.45h-7.79s-4.37 0-4.37 0v-11.93h12.16c1.9 0 3.45 1.55 3.45 3.45v5.02z" fill="#f50"/><path d="m522.88 55.04v-9h-3.08v-1.94h8.36v1.94h-3.06v9z" fill="#f50"/><path d="m535.81 51.63h-1.37l-2.16-3.6v7h-2.14v-10.94h2.14l2.88 4.83 2.88-4.83h2.08v10.94h-2.14v-7l-2.16 3.6z" fill="#f50"/><path d="m74.88 88.55c-8.53 0-15.46-6.94-15.46-15.46v-42.47h12.01v42.47c0 1.9 1.55 3.45 3.45 3.45h16.16l-2.9 12.01z" fill="#fff"/></svg>